<svg xmlns="http://www.w3.org/2000/svg" width="333.392" height="266.653" viewBox="0 0 333.392 266.653"><defs><style>.a,.h{fill:#36e0a0;}.b{fill:#263238;}.c{fill:#fafafa;}.d{fill:#29be86;opacity:0.4;}.e{fill:#fff;}.f{opacity:0.8;}.g{fill:#5ce5b2;}.g,.h{fill-rule:evenodd;}.i{fill:none;}.j{fill:#016842;}</style></defs><g transform="translate(-1276.431 -153.66)"><g transform="translate(1464.387 166.607)"><g transform="translate(0 0)"><g transform="translate(4.035 96.622)"><path class="a" d="M411,244.911s-70.729-2.288-70.729,35.323c0,42.646,14.057,122.555,70.729,121.727s67.078-112.878,67.714-117.873C478.713,284.088,481.67,248.179,411,244.911Z" transform="translate(-340.27 -244.884)"/><g transform="translate(2.02 25.917)"><path class="b" d="M476.308,265.314a1.257,1.257,0,0,1-.291.228l-.9.6c-.786.532-1.984,1.26-3.551,2.153a85.193,85.193,0,0,1-13.949,6.21,114.586,114.586,0,0,1-22.06,5.123,196.237,196.237,0,0,1-27.684,1.529,256.617,256.617,0,0,1-27.7-1.4,75.983,75.983,0,0,1-21.891-5.743,49.441,49.441,0,0,1-12.86-8.209,37.785,37.785,0,0,1-2.928-2.95l-.7-.824a1.306,1.306,0,0,1-.217-.3c.011-.009.1.074.278.245l.754.771c.661.677,1.662,1.65,3.016,2.825a51.39,51.39,0,0,0,12.885,7.926,76.953,76.953,0,0,0,21.752,5.526,266.744,266.744,0,0,0,27.613,1.329,202.2,202.2,0,0,0,27.582-1.459,117.615,117.615,0,0,0,21.974-4.927,91.763,91.763,0,0,0,13.983-5.947c1.584-.849,2.8-1.53,3.616-2.016l.937-.535A1.285,1.285,0,0,1,476.308,265.314Z" transform="translate(-341.583 -261.737)"/></g><g transform="translate(43.189 43.696)"><path class="b" d="M419.161,273.3a5.3,5.3,0,0,1,.1,1.055c.042.692.072,1.715.068,3.033a52.225,52.225,0,0,1-1.173,11.105,38.653,38.653,0,0,1-2.413,7.354,30.77,30.77,0,0,1-4.658,7.579,28.044,28.044,0,0,1-7.551,6.307,26.275,26.275,0,0,1-4.809,2.072,22.232,22.232,0,0,1-5.327.9,19.931,19.931,0,0,1-10.259-2.5,25.518,25.518,0,0,1-7.507-6.365,32.771,32.771,0,0,1-6.541-15.158,55.321,55.321,0,0,1-.7-11.144c.04-1.318.111-2.339.172-3.03a5.2,5.2,0,0,1,.135-1.05,5.251,5.251,0,0,1,.025,1.06c0,.772-.012,1.776-.022,3.024a60.866,60.866,0,0,0,.95,11.038,32.679,32.679,0,0,0,6.556,14.795,24.987,24.987,0,0,0,7.31,6.142,19.237,19.237,0,0,0,9.857,2.384,21.593,21.593,0,0,0,5.124-.86,25.762,25.762,0,0,0,4.655-1.995,27.51,27.51,0,0,0,7.373-6.1,30.482,30.482,0,0,0,4.615-7.373,38.951,38.951,0,0,0,2.467-7.21,57.071,57.071,0,0,0,1.413-10.984c.034-1.247.062-2.251.083-3.024A5.254,5.254,0,0,1,419.161,273.3Z" transform="translate(-368.353 -273.297)"/></g><g transform="translate(25.712 99.559)"><path class="b" d="M442.1,340.63c-.088.031-.547-1.512-1.755-4.142a46.369,46.369,0,0,0-6.539-10.283,45.38,45.38,0,0,0-14.069-11.167,44.369,44.369,0,0,0-42.379,1.6,45.393,45.393,0,0,0-13.185,12.2,46.424,46.424,0,0,0-5.744,10.749c-1,2.713-1.346,4.286-1.436,4.262a6.5,6.5,0,0,1,.226-1.144,33.479,33.479,0,0,1,.917-3.222,43.926,43.926,0,0,1,5.575-10.971,45.192,45.192,0,0,1,13.264-12.5,44.65,44.65,0,0,1,43.1-1.632,45.177,45.177,0,0,1,14.17,11.462,43.973,43.973,0,0,1,6.39,10.519,33.433,33.433,0,0,1,1.158,3.143A6.25,6.25,0,0,1,442.1,340.63Z" transform="translate(-356.989 -309.621)"/></g><path class="c" d="M405.181,310.578l3.253-14.624h28.585c-1.012,4.332-2.442,9.389-4.059,14.773Z" transform="translate(-305.354 -217.413)"/><path class="c" d="M374.761,310.578l-3.253-14.624H342.923c1.013,4.332,1.872,9.389,3.49,14.773Z" transform="translate(-338.843 -217.413)"/><path class="d" d="M473.774,270.8c-6.834-11.162-24.94-24.085-63.985-25.891,0,0-43.754-1.415-62.435,16.279a41.045,41.045,0,0,0-4.78,5.912c-1.135,2.113,14.606,21.011,65.169,19.387C459.905,284.814,473.774,270.8,473.774,270.8Z" transform="translate(-339.061 -244.884)"/></g><path class="a" d="M346.12,265.756a29.774,29.774,0,0,1-7.891-26.769c4.079-20.6,19.073-57.7,74.181-56.917,57.813.821,68.662,40.836,70.53,60.114a30.047,30.047,0,0,1-6.735,22.084c-8.6,10.381-26.86,23.782-63.8,23.768C375.818,288.023,356.153,275.874,346.12,265.756Z" transform="translate(-337.646 -182.058)"/><path class="b" d="M443.148,249.975c-26.826,6.561-53.009,6.807-78.5.286A21.7,21.7,0,0,1,348.419,229.2v-.372a21.771,21.771,0,0,1,21.772-21.771h67.737A21.771,21.771,0,0,1,459.7,228.831h0A21.757,21.757,0,0,1,443.148,249.975Z" transform="translate(-331.852 -168.609)"/><g transform="translate(42.369 58.69)"><path class="e" d="M375.009,225.94a4.937,4.937,0,1,1-4.094-5.656A4.936,4.936,0,0,1,375.009,225.94Z" transform="translate(-365.196 -220.22)"/></g><g transform="translate(98.934 55.829)"><path class="e" d="M411.791,224.079a4.938,4.938,0,1,1-4.1-5.656A4.938,4.938,0,0,1,411.791,224.079Z" transform="translate(-401.976 -218.36)"/></g></g></g><g transform="translate(1276.431 153.659)"><g class="f" transform="translate(0 0)"><g class="f" transform="translate(83.691 59.948)"><path class="g" d="M302.415,231.845a42.1,42.1,0,0,1,6.4-9.223l-3.561-9.78,14.478-9.319,7.428,7.288a42.173,42.173,0,0,1,11.045-2.005l4.4-9.428,16.828,3.647.1,10.4a42.109,42.109,0,0,1,9.223,6.4l9.78-3.561,9.321,14.478-7.29,7.428a42.269,42.269,0,0,1,2.005,11.045l9.428,4.4-3.645,16.828-10.4.1a42.088,42.088,0,0,1-6.4,9.223l3.561,9.78-14.478,9.319-7.428-7.29a42.15,42.15,0,0,1-11.045,2.005l-4.4,9.431-16.828-3.647-.1-10.4a42.25,42.25,0,0,1-9.223-6.4l-9.78,3.561-9.319-14.478,7.29-7.43a42.14,42.14,0,0,1-2.005-11.043l-9.431-4.4,3.647-16.828,10.4-.1Zm19.877,14.667a18.47,18.47,0,1,0,21.964-14.14A18.469,18.469,0,0,0,322.292,246.512Z" transform="translate(-288.363 -199.377)"/></g><g transform="translate(63.677)"><path class="h" d="M286.59,189.4a20.445,20.445,0,0,1,3.1-4.477l-1.728-4.749,7.027-4.523,3.605,3.538a20.547,20.547,0,0,1,5.359-.974l2.134-4.577,8.168,1.772.047,5.047a20.472,20.472,0,0,1,4.479,3.107l4.747-1.728,4.523,7.027-3.538,3.606a20.525,20.525,0,0,1,.974,5.359l4.577,2.134-1.77,8.168-5.05.047a20.47,20.47,0,0,1-3.1,4.477l1.728,4.747-7.027,4.526-3.608-3.54a20.339,20.339,0,0,1-5.359.974l-2.133,4.577-8.168-1.77-.047-5.047a20.456,20.456,0,0,1-4.477-3.107l-4.747,1.728-4.526-7.027,3.54-3.606a20.337,20.337,0,0,1-.974-5.359l-4.577-2.134,1.77-8.168,5.05-.047Zm9.647,7.118a8.966,8.966,0,1,0,10.661-6.862A8.969,8.969,0,0,0,296.237,196.518Z" transform="translate(-279.77 -173.639)"/></g><g transform="translate(0 50.077)"><path class="i" d="M261.32,215.554a26.242,26.242,0,0,1,3.976-5.734l-2.215-6.079,9-5.795,4.619,4.53a26.249,26.249,0,0,1,6.866-1.246l2.732-5.862,10.46,2.269.061,6.466a26.273,26.273,0,0,1,5.734,3.978l6.081-2.213,5.793,9-4.53,4.619a26.283,26.283,0,0,1,1.246,6.866l5.862,2.732-2.269,10.463-6.466.061a26.17,26.17,0,0,1-3.978,5.734l2.215,6.079-9,5.795-4.619-4.533a26.246,26.246,0,0,1-6.866,1.246l-2.732,5.863-10.46-2.266-.061-6.468a26.114,26.114,0,0,1-5.734-3.978l-6.081,2.215-5.793-9,4.53-4.619a26.251,26.251,0,0,1-1.246-6.864l-5.862-2.732,2.269-10.463,6.468-.061Zm12.356,9.119a11.483,11.483,0,1,0,13.653-8.79A11.484,11.484,0,0,0,273.676,224.672Z" transform="translate(-252.229 -194.836)"/><g transform="translate(20.966 20.297)"><path class="j" d="M261.913,213.393c-.042-.009-.016-.261.074-.741a8.562,8.562,0,0,1,.659-2.029,11.427,11.427,0,0,1,5.45-5.578,11.87,11.87,0,0,1,11.443.594,12,12,0,0,1-4.791,22.108,11.875,11.875,0,0,1-10.663-4.195,11.437,11.437,0,0,1-2.653-7.337,8.758,8.758,0,0,1,.24-2.12c.119-.473.2-.713.24-.7.116.021-.119,1.02-.007,2.809A11.457,11.457,0,0,0,264.739,223a10.962,10.962,0,1,0,3.722-17.175,11.464,11.464,0,0,0-5.392,5.012C262.228,212.414,262.027,213.423,261.913,213.393Z" transform="translate(-261.433 -203.853)"/></g><path class="j" d="M261.522,215.857a11.314,11.314,0,0,1-1.609.107l-4.859.147.189-.151c-.559,2.72-1.283,6.242-2.157,10.483l-.17-.342,5.883,2.688.193.088.012.219a26.118,26.118,0,0,0,1.269,6.759l.075.226-.168.175-4.509,4.642.056-.536q2.756,4.241,5.832,8.977l-.566-.191c1.882-.692,3.95-1.456,6.072-2.236l.284-.1.226.2a25.754,25.754,0,0,0,5.634,3.883l.282.142,0,.319c.026,2.005.051,4.216.079,6.466l-.426-.522c3.289.7,6.834,1.465,10.467,2.243l-.631.312c.848-1.826,1.777-3.834,2.72-5.865l.147-.317.349-.016a25.862,25.862,0,0,0,6.713-1.23l.335-.109.256.249,4.623,4.528-.738-.077c2.849-1.838,5.9-3.806,9-5.8l-.24.713c-.7-1.919-1.456-3.99-2.215-6.077l-.126-.345.247-.273a25.663,25.663,0,0,0,3.883-5.595l0-.007c1.069-.659.3-.182.536-.331h.2l.2,0,.405,0,.813-.007,1.623-.016,3.224-.028-.587.478q1.153-5.3,2.273-10.46l.333.671-5.86-2.739-.328-.151-.014-.361a25.778,25.778,0,0,0-1.211-6.71l-.109-.34.249-.254q2.3-2.337,4.537-4.612l-.072.717q-2.959-4.612-5.779-9.009l.661.221q-3.1,1.121-6.086,2.2l-.31.112-.242-.221a25.8,25.8,0,0,0-5.606-3.913l-.284-.147,0-.317c-.014-2.215-.028-4.365-.04-6.466l.4.489c-3.675-.813-7.146-1.577-10.451-2.308l.517-.256c-.969,2.054-1.88,3.985-2.758,5.849l-.114.24-.261.012a25.947,25.947,0,0,0-6.764,1.19l-.233.075-.168-.168-4.591-4.56.445.044-9.046,5.723.107-.321c.85,2.422,1.551,4.421,2.143,6.1l.04.112-.079.088a34.987,34.987,0,0,0-4.12,5.6,1.756,1.756,0,0,1,.154-.405c.121-.261.312-.652.6-1.16a24.493,24.493,0,0,1,3.079-4.3l-.04.2-2.285-6.053-.077-.2.184-.121c2.543-1.665,5.5-3.6,8.956-5.865l.238-.156.207.2c1.437,1.4,2.958,2.869,4.644,4.5l-.4-.093a26.593,26.593,0,0,1,6.969-1.3l-.375.249c.862-1.87,1.756-3.808,2.706-5.874l.154-.335.366.079,10.47,2.227.394.084,0,.405c.026,2.1.054,4.248.082,6.466l-.287-.461a26.7,26.7,0,0,1,5.863,4.043l-.552-.109,6.074-2.227.417-.154.242.375q2.837,4.385,5.811,8.991l.252.387-.324.331L310.52,220.2l.14-.592a26.812,26.812,0,0,1,1.281,7.02l-.342-.512q2.9,1.352,5.865,2.727l.433.2-.1.47q-1.115,5.157-2.262,10.463l-.1.473-.484,0-3.224.03-1.623.016-.813.007-.408,0-.2,0-.1,0h-.093c.238-.147-.536.331.533-.331l0,.007a26.859,26.859,0,0,1-4.067,5.86l.121-.615,2.213,6.079.163.454-.4.261c-3.1,1.989-6.154,3.955-9.007,5.786l-.4.259-.34-.333c-1.591-1.568-3.168-3.116-4.612-4.537l.592.14a26.84,26.84,0,0,1-7.02,1.262l.5-.331L284,260.332l-.191.41-.44-.1c-3.629-.794-7.172-1.572-10.456-2.292l-.424-.093,0-.429c-.014-2.252-.028-4.463-.042-6.468l.284.461a26.729,26.729,0,0,1-5.832-4.074l.508.1-6.086,2.192-.361.13-.2-.319q-3.029-4.748-5.755-9.025l-.189-.293.242-.245c1.6-1.609,3.135-3.161,4.556-4.593l-.093.4a26.447,26.447,0,0,1-1.223-6.971l.2.305c-2.1-1-4.069-1.933-5.842-2.776l-.226-.107.054-.238,2.378-10.437.035-.154.154,0c2.026.023,3.613.044,4.779.058l1.248.035A1.941,1.941,0,0,1,261.522,215.857Z" transform="translate(-252.431 -195.139)"/></g></g></g></g></svg>